<?xml version="1.0" encoding="utf-8"?>
<!-- Generator: Adobe Illustrator 19.2.1, SVG Export Plug-In . SVG Version: 6.00 Build 0)  -->
<svg version="1.1" baseProfile="tiny" id="Layer_1" xmlns="http://www.w3.org/2000/svg" xmlns:xlink="http://www.w3.org/1999/xlink"
	 x="0px" y="0px" viewBox="0 0 100 100" xml:space="preserve">
<path fill="#FFFFFF" d="M92.8,18.3c-0.2,0-1.6-0.2-4.3-0.2c-4.9,0-13.6,0.7-24.8,4.6c11.5-6.5,23.3-7.1,23.4-7.1
	c1,0,1.8-0.9,1.7-1.9c0-1-0.9-1.8-1.9-1.7c-0.7,0-14.7,0.7-27.5,9c9.7-9.1,24-11.8,24.1-11.9c1-0.2,1.6-1.1,1.4-2.1
	C84.9,6,84,5.3,83,5.5c-1,0.2-23.8,4.6-32.7,21.4C41.5,10.1,18.7,5.8,17.7,5.6c-1-0.2-1.9,0.5-2.1,1.5c-0.2,1,0.5,1.9,1.5,2.1
	c0.2,0,14.4,2.8,24.2,11.9c-12.9-8.3-26.8-9-27.5-9c-1-0.1-1.8,0.7-1.9,1.7c0,1,0.7,1.8,1.7,1.9c0.2,0,11.9,0.6,23.4,7.1
	c-11.2-3.9-19.9-4.6-24.9-4.6c-2.6,0-4.1,0.2-4.3,0.2c-1.4,0.2-2.4,1.5-2.3,2.9l4.5,60c0.1,1.4,1.2,2.5,2.6,2.5
	c22.3,0.8,35.9,10.9,36.1,11c0.5,0.4,1.1,0.5,1.6,0.5c0.4,0,0.8-0.1,1.2-0.3c0.2-0.1,0.5-0.3,0.6-0.4c1.7-1.2,14.9-10.1,35.9-10.8
	c1.4,0,2.5-1.1,2.6-2.5l4.5-60C95.3,19.7,94.3,18.5,92.8,18.3z M47.6,87.7c-5.7-3.2-16.9-8.2-32.4-9.2l-4.1-54.9c0.3,0,0.6,0,1,0
	c6.2,0,19,1.3,35.5,9.6V87.7z M85.4,78.4c-15.4,1-26.6,6-32.4,9.2V33c16.5-8.3,29.3-9.5,35.5-9.5c0.4,0,0.7,0,1,0L85.4,78.4z"/>
</svg>
